<svg width="37" height="57" viewBox="0 0 37 57" fill="none" xmlns="http://www.w3.org/2000/svg">
<path fill-rule="evenodd" clip-rule="evenodd" d="M32.0332 23.51L31.1156 30.208H20.094V53.651H13.396V30.208H3.34899V23.51H13.396V17.3713C13.396 8.85477 18.6272 3.34899 26.7284 3.34899C30.1979 3.34899 32.3614 3.5332 33.6106 3.70064L33.5134 10.0437L28.3627 10.0537C28.222 10.0403 24.8663 9.77909 22.445 12.0028C20.8844 13.4329 20.094 15.4891 20.094 18.1081V23.51H32.0332V23.51ZM24.6922 14.4844C26.0117 13.2553 28.068 13.3893 28.2187 13.396L36.8122 13.3927L36.9964 0.998005L35.7037 0.679844C34.8732 0.475594 32.3313 0 26.7284 0C16.7517 0 10.047 6.98268 10.047 17.3713V20.161H0V33.557H10.047V57H23.443V33.557H34.0325L35.8711 20.161H23.443V18.108C23.443 16.4771 23.865 15.258 24.6922 14.4844Z" fill="#FBC000"/>
</svg>
