<svg width="59" height="59" viewBox="0 0 59 59" fill="none" xmlns="http://www.w3.org/2000/svg">
<path d="M43.3594 0H15.2344C11.194 0 7.31904 1.60505 4.46204 4.46204C1.60505 7.31904 0 11.194 0 15.2344V43.3594C0 47.3998 1.60505 51.2747 4.46204 54.1317C7.31904 56.9887 11.194 58.5937 15.2344 58.5937H43.3594C47.3998 58.5937 51.2747 56.9887 54.1317 54.1317C56.9887 51.2747 58.5937 47.3998 58.5937 43.3594V15.2344C58.5937 11.194 56.9887 7.31904 54.1317 4.46204C51.2747 1.60505 47.3998 0 43.3594 0ZM56.25 43.3594C56.25 46.7782 54.8919 50.057 52.4744 52.4744C50.057 54.8919 46.7782 56.25 43.3594 56.25H15.2344C11.8156 56.25 8.53679 54.8919 6.11933 52.4744C3.70187 50.057 2.34375 46.7782 2.34375 43.3594V15.2344C2.34375 11.8156 3.70187 8.53679 6.11933 6.11933C8.53679 3.70187 11.8156 2.34375 15.2344 2.34375H43.3594C46.7782 2.34375 50.057 3.70187 52.4744 6.11933C54.8919 8.53679 56.25 11.8156 56.25 15.2344V43.3594Z" fill="#FBC000"/>
<path d="M17.5781 21.0938H9.375C9.0642 21.0938 8.76613 21.2172 8.54636 21.437C8.32659 21.6568 8.20312 21.9548 8.20312 22.2656V49.2188C8.20312 49.5296 8.32659 49.8276 8.54636 50.0474C8.76613 50.2672 9.0642 50.3906 9.375 50.3906H17.5781C17.8889 50.3906 18.187 50.2672 18.4068 50.0474C18.6265 49.8276 18.75 49.5296 18.75 49.2188V22.2656C18.75 21.9548 18.6265 21.6568 18.4068 21.437C18.187 21.2172 17.8889 21.0938 17.5781 21.0938ZM16.4062 48.0469H10.5469V23.4375H16.4062V48.0469Z" fill="#FBC000"/>
<path d="M41.0156 21.0937C38.1121 21.1867 35.2837 22.0393 32.8125 23.5664V22.2656C32.8125 21.9548 32.689 21.6567 32.4693 21.4369C32.2495 21.2172 31.9514 21.0937 31.6406 21.0937H23.4375C23.1267 21.0937 22.8286 21.2172 22.6089 21.4369C22.3891 21.6567 22.2656 21.9548 22.2656 22.2656V49.2187C22.2656 49.5295 22.3891 49.8276 22.6089 50.0474C22.8286 50.2671 23.1267 50.3906 23.4375 50.3906H31.6406C31.9514 50.3906 32.2495 50.2671 32.4693 50.0474C32.689 49.8276 32.8125 49.5295 32.8125 49.2187V31.4179C33.9072 30.8647 35.1037 30.5416 36.3281 30.4687C39.6211 30.4687 39.8437 32.8125 39.8437 33.3281V49.2187C39.8437 49.5295 39.9672 49.8276 40.187 50.0474C40.4068 50.2671 40.7048 50.3906 41.0156 50.3906H49.2187C49.5295 50.3906 49.8276 50.2671 50.0474 50.0474C50.2672 49.8276 50.3906 49.5295 50.3906 49.2187V30.6679C50.4736 29.3673 50.2944 28.0633 49.8636 26.8333C49.4328 25.6033 48.7592 24.4724 47.8828 23.5078C46.9595 22.664 45.8754 22.0152 44.6954 21.6004C43.5154 21.1856 42.2638 21.0132 41.0156 21.0937ZM48.0469 48.0468H42.1875V33.3281C42.1875 31.5234 41.0156 28.125 36.3281 28.125C34.4972 28.2238 32.7132 28.741 31.1133 29.6367C30.92 29.7341 30.7575 29.8831 30.6437 30.0672C30.53 30.2512 30.4694 30.4632 30.4687 30.6797V48.0468H24.6094V23.4375H30.4687V25.8515C30.469 26.0767 30.5342 26.2971 30.6565 26.4862C30.7787 26.6754 30.9529 26.8253 31.1581 26.918C31.3634 27.0107 31.591 27.0423 31.8137 27.0091C32.0364 26.9758 32.2449 26.8791 32.4141 26.7304C34.8444 24.7224 37.8656 23.5657 41.0156 23.4375C41.9502 23.3648 42.8899 23.4798 43.7795 23.7756C44.669 24.0715 45.4904 24.5422 46.1953 25.1601C46.8542 25.9092 47.3573 26.7821 47.6752 27.7277C47.9931 28.6734 48.1195 29.6729 48.0469 30.6679V48.0468Z" fill="#FBC000"/>
<path d="M13.4766 8.20312C12.4336 8.20312 11.414 8.51241 10.5468 9.09186C9.67959 9.67131 9.00368 10.4949 8.60454 11.4585C8.20541 12.4221 8.10098 13.4824 8.30445 14.5054C8.50793 15.5283 9.01018 16.4679 9.74768 17.2054C10.4852 17.9429 11.4248 18.4452 12.4478 18.6487C13.4707 18.8521 14.531 18.7477 15.4946 18.3486C16.4582 17.9494 17.2818 17.2735 17.8613 16.4063C18.4407 15.5391 18.75 14.5195 18.75 13.4766C18.75 12.078 18.1944 10.7366 17.2054 9.74768C16.2165 8.75872 14.8752 8.20312 13.4766 8.20312ZM13.4766 16.4062C12.8971 16.4062 12.3307 16.2344 11.8489 15.9125C11.3671 15.5906 10.9916 15.133 10.7699 14.5977C10.5481 14.0624 10.4901 13.4733 10.6032 12.905C10.7162 12.3367 10.9952 11.8147 11.405 11.405C11.8147 10.9952 12.3367 10.7162 12.905 10.6032C13.4733 10.4901 14.0624 10.5481 14.5977 10.7699C15.133 10.9916 15.5906 11.3671 15.9125 11.8489C16.2344 12.3307 16.4063 12.8971 16.4063 13.4766C16.4063 14.2536 16.0976 14.9987 15.5482 15.5482C14.9987 16.0976 14.2536 16.4062 13.4766 16.4062Z" fill="#FBC000"/>
</svg>
