<svg width="57" height="57" viewBox="0 0 57 57" fill="none" xmlns="http://www.w3.org/2000/svg">
<path d="M28.5 15.4375C25.9165 15.4375 23.391 16.2036 21.2429 17.6389C19.0947 19.0743 17.4205 21.1143 16.4318 23.5012C15.4432 25.8881 15.1845 28.5145 15.6885 31.0484C16.1925 33.5822 17.4366 35.9098 19.2634 37.7366C21.0902 39.5634 23.4178 40.8075 25.9516 41.3115C28.4855 41.8155 31.1119 41.5568 33.4988 40.5682C35.8857 39.5795 37.9257 37.9052 39.3611 35.7571C40.7964 33.609 41.5625 31.0835 41.5625 28.5C41.5586 25.0368 40.1811 21.7166 37.7323 19.2677C35.2834 16.8189 31.9632 15.4414 28.5 15.4375ZM28.5 39.1875C26.3862 39.1875 24.3199 38.5607 22.5623 37.3863C20.8048 36.212 19.4349 34.5428 18.626 32.5899C17.8171 30.637 17.6055 28.4881 18.0179 26.415C18.4302 24.3418 19.4481 22.4375 20.9428 20.9428C22.4375 19.4481 24.3418 18.4302 26.415 18.0179C28.4881 17.6055 30.637 17.8171 32.5899 18.626C34.5428 19.4349 36.212 20.8048 37.3863 22.5623C38.5607 24.3199 39.1875 26.3862 39.1875 28.5C39.1843 31.3335 38.0573 34.0501 36.0537 36.0537C34.0501 38.0573 31.3335 39.1843 28.5 39.1875ZM41.5625 0H15.4375C11.3446 0.00463593 7.42075 1.63257 4.52666 4.52666C1.63257 7.42075 0.00463593 11.3446 0 15.4375V41.5625C0.00463593 45.6554 1.63257 49.5793 4.52666 52.4733C7.42075 55.3674 11.3446 56.9954 15.4375 57H41.5625C45.6554 56.9954 49.5793 55.3674 52.4733 52.4733C55.3674 49.5793 56.9954 45.6554 57 41.5625V15.4375C56.9954 11.3446 55.3674 7.42075 52.4733 4.52666C49.5793 1.63257 45.6554 0.00463593 41.5625 0ZM54.625 41.5625C54.6211 45.0257 53.2436 48.3459 50.7948 50.7948C48.3459 53.2436 45.0257 54.6211 41.5625 54.625H15.4375C11.9743 54.6211 8.65408 53.2436 6.20524 50.7948C3.75639 48.3459 2.37891 45.0257 2.375 41.5625V15.4375C2.37891 11.9743 3.75639 8.65408 6.20524 6.20524C8.65408 3.75639 11.9743 2.37891 15.4375 2.375H41.5625C45.0257 2.37891 48.3459 3.75639 50.7948 6.20524C53.2436 8.65408 54.6211 11.9743 54.625 15.4375V41.5625ZM46.3125 13.0625C46.3125 13.5322 46.1732 13.9914 45.9122 14.382C45.6513 14.7725 45.2803 15.077 44.8464 15.2567C44.4124 15.4365 43.9349 15.4835 43.4742 15.3919C43.0135 15.3002 42.5903 15.074 42.2581 14.7419C41.926 14.4097 41.6998 13.9865 41.6081 13.5258C41.5165 13.0651 41.5635 12.5876 41.7433 12.1536C41.923 11.7197 42.2275 11.3487 42.618 11.0878C43.0086 10.8268 43.4678 10.6875 43.9375 10.6875C44.5672 10.6882 45.1708 10.9387 45.6161 11.3839C46.0613 11.8292 46.3118 12.4328 46.3125 13.0625Z" fill="#FBC000"/>
</svg>
